<svg width="311" height="91" viewBox="0 0 311 91" fill="none" xmlns="http://www.w3.org/2000/svg">
<path fill-rule="evenodd" clip-rule="evenodd" d="M40.1284 33.5413C38.9831 33.0723 37.8044 32.6879 36.602 32.3913C34.8152 31.9753 32.9856 31.7669 31.1501 31.7703C27.3699 31.5504 23.6348 32.676 20.6175 34.9443C19.331 36.0099 18.3084 37.3542 17.6286 38.8735C16.9489 40.3928 16.6301 42.0465 16.6968 43.7073C16.6276 45.3784 16.9523 47.0425 17.6449 48.5676C18.3376 50.0927 19.3792 51.4368 20.6871 52.4933C23.7337 54.8015 27.5058 55.9666 31.3357 55.7823C33.1286 55.7772 34.9163 55.5923 36.6716 55.2303C37.8577 54.9988 39.0219 54.6679 40.1516 54.2413C40.3146 54.1813 40.4899 54.1617 40.6622 54.1842C40.8346 54.2067 40.9988 54.2706 41.1406 54.3703C41.2824 54.4701 41.3974 54.6026 41.4757 54.7565C41.554 54.9104 41.5933 55.0809 41.5899 55.2533V61.3713C41.6003 61.6233 41.5196 61.8708 41.3622 62.069C41.2048 62.2672 40.9811 62.4031 40.7316 62.4523C39.3396 62.7283 37.9244 62.9353 36.5324 63.0963C34.4223 63.3366 32.2997 63.4518 30.1757 63.4413C22.1487 63.4413 15.908 61.7163 11.4305 58.2203C9.21522 56.5125 7.44437 54.304 6.26587 51.7792C5.08736 49.2544 4.53543 46.4867 4.65618 43.7073C4.55332 40.9994 5.09885 38.3059 6.24809 35.8473C7.39733 33.3887 9.11761 31.2349 11.2681 29.5623C16.4864 25.8422 22.8296 24.0002 29.2478 24.3413C31.6622 24.329 34.0742 24.4981 36.4628 24.8473C37.9476 25.0773 39.3628 25.4223 40.7316 25.7443C40.9769 25.8015 41.1954 25.9396 41.3514 26.136C41.5073 26.3324 41.5914 26.5754 41.5899 26.8253V32.4603C41.5899 33.2653 41.0564 33.8633 40.1284 33.4723" fill="#004190"/>
<path fill-rule="evenodd" clip-rule="evenodd" d="M151.51 33.5428C150.364 33.0739 149.186 32.6895 147.983 32.3928C146.197 31.9757 144.367 31.7673 142.531 31.7718C138.743 31.5717 135.007 32.722 131.999 35.0148C130.722 36.0733 129.705 37.4064 129.025 38.9129C128.346 40.4194 128.022 42.0596 128.078 43.7088C128.009 45.38 128.334 47.0441 129.026 48.5692C129.719 50.0943 130.76 51.4384 132.068 52.4948C135.115 54.8031 138.887 55.9682 142.717 55.7838C144.51 55.7788 146.298 55.5939 148.053 55.2318C149.236 55.0275 150.399 54.7275 151.533 54.3348C151.696 54.2749 151.871 54.2553 152.043 54.2778C152.216 54.3002 152.38 54.3642 152.522 54.4639C152.664 54.5637 152.779 54.6962 152.857 54.8501C152.935 55.004 152.974 55.1745 152.971 55.3468V61.3728C152.982 61.6249 152.901 61.8723 152.743 62.0705C152.586 62.2688 152.362 62.4047 152.113 62.4538C150.721 62.7298 149.306 62.9368 147.914 63.0978C145.796 63.3391 143.665 63.4543 141.534 63.4428C133.507 63.4428 127.266 61.7178 122.788 58.2218C120.573 56.5141 118.802 54.3056 117.624 51.7808C116.445 49.256 115.893 46.4883 116.014 43.7088C115.91 40.9985 116.458 38.3025 117.611 35.8432C118.765 33.3838 120.492 31.2315 122.649 29.5638C127.871 25.8319 134.225 23.989 140.652 24.3428C143.059 24.3314 145.463 24.5005 147.844 24.8488C149.329 25.0788 150.744 25.4238 152.113 25.7458C152.358 25.8031 152.577 25.9412 152.733 26.1376C152.889 26.3339 152.973 26.5769 152.971 26.8268V32.4618C152.971 33.2668 152.438 33.8648 151.51 33.4738" fill="#004190"/>
<path fill-rule="evenodd" clip-rule="evenodd" d="M55.9506 24.6189C56.1365 24.6096 56.3224 24.6367 56.4977 24.6988C56.673 24.7608 56.8342 24.8566 56.9721 24.9805C57.11 25.1044 57.2219 25.2541 57.3014 25.4209C57.3809 25.5878 57.4264 25.7685 57.4353 25.9529V61.1429C57.4353 62.5229 56.6002 62.6149 55.9042 62.6149H47.2275C46.3923 62.6149 45.5339 62.1319 45.5339 61.3039V25.9529C45.5332 25.7676 45.5715 25.5842 45.6463 25.4143C45.721 25.2445 45.8306 25.092 45.9681 24.9665C46.1056 24.841 46.268 24.7452 46.4449 24.6854C46.6218 24.6255 46.8093 24.6029 46.9955 24.6189H55.9506Z" fill="#004190"/>
<path fill-rule="evenodd" clip-rule="evenodd" d="M84.2772 62.5688C83.355 62.6838 82.4225 62.4559 81.6598 61.9292C80.8972 61.4025 80.3584 60.6143 80.1477 59.7168L73.1878 37.8208C73.1878 37.4528 72.5382 37.5218 72.5382 37.8208L72.747 61.1428C72.7757 61.3317 72.7609 61.5245 72.7037 61.7069C72.6465 61.8893 72.5483 62.0565 72.4166 62.1959C72.2849 62.3353 72.1231 62.4434 71.9432 62.5119C71.7634 62.5805 71.5702 62.6078 71.3782 62.5918H63.1656C62.0288 62.5918 61.6112 62.2698 61.6112 61.1428V26.1828C61.6112 25.4468 62.1216 24.6188 63.4904 24.6188H75.0902C77.8045 24.6188 79.7301 25.2398 80.6581 27.9998L86.8988 47.7108C86.9221 47.8124 86.9796 47.9032 87.0618 47.9682C87.144 48.0332 87.246 48.0686 87.3512 48.0686C87.4563 48.0686 87.5583 48.0332 87.6405 47.9682C87.7227 47.9032 87.7802 47.8124 87.8036 47.7108L94.0674 27.9998C94.8794 25.2398 96.8514 24.6188 99.5657 24.6188H111.166C112.534 24.6188 113.045 25.4468 113.045 26.1828V61.1428C113.045 62.2698 112.604 62.5918 111.49 62.5918H103.254C103.062 62.607 102.868 62.5795 102.687 62.511C102.507 62.4426 102.344 62.335 102.21 62.1961C102.077 62.0573 101.976 61.8907 101.916 61.7084C101.856 61.5262 101.838 61.3329 101.863 61.1428L102.094 37.8438C102.094 37.5218 101.584 37.4528 101.468 37.8438L94.5082 59.7398C94.3022 60.6399 93.7646 61.4312 93.0007 61.9588C92.2368 62.4864 91.3017 62.7121 90.3787 62.5918L84.2772 62.5688Z" fill="#004190"/>
<path d="M191.343 39.3849V63.6499H182.064V39.3849H171.693V32.0939H201.853V39.3849H191.343Z" fill="#3E3A39"/>
<path d="M225.98 63.6499L223.498 56.2669H211.434L208.813 63.6499H199.533L211.133 32.0939H223.776L235.608 63.6499H225.98ZM217.536 37.5449L213.151 50.1719H221.781L217.536 37.5449Z" fill="#3E3A39"/>
<path d="M256.001 63.6499L246.721 39.2009V63.6499H238.508V32.0939H252.428L261.708 56.6119V32.0939H269.874V63.6499H256.001Z" fill="#3E3A39"/>
<path d="M295.672 63.6499L285.371 49.1369V63.6499H276.092V32.0939H285.371V45.3419L295.115 32.0939H306.042L293.816 46.8599L307.086 63.6499H295.672Z" fill="#3E3A39"/>
</svg>
