<svg xmlns="http://www.w3.org/2000/svg" xmlns:xlink="http://www.w3.org/1999/xlink" viewBox="0 0 532.87 533"><defs><style>.cls-1{fill:url(#未命名的渐变_19);}.cls-2{fill:url(#未命名的渐变_35);}.cls-3{fill:url(#未命名的渐变_35-2);}.cls-4{fill:url(#未命名的渐变_35-3);}</style><linearGradient id="未命名的渐变_19" x1="483.82" y1="-30.76" x2="56.06" y2="397" gradientUnits="userSpaceOnUse"><stop offset="0" stop-color="#1aaffa"/><stop offset="0.37" stop-color="#1b9ff7"/><stop offset="1" stop-color="#056bec"/></linearGradient><linearGradient id="未命名的渐变_35" x1="476.25" y1="47.37" x2="570.98" y2="142.09" gradientUnits="userSpaceOnUse"><stop offset="0" stop-color="#1abcfa"/><stop offset="0.37" stop-color="#1ba9f8"/><stop offset="0.47" stop-color="#1ba4f7"/><stop offset="1" stop-color="#0557ec"/></linearGradient><linearGradient id="未命名的渐变_35-2" x1="355.84" y1="346.34" x2="365.1" y2="355.6" xlink:href="#未命名的渐变_35"/><linearGradient id="未命名的渐变_35-3" x1="42.84" y1="-42.84" x2="494.23" y2="408.55" xlink:href="#未命名的渐变_35"/></defs><g id="图层_2" data-name="图层 2"><g id="图层_1-2" data-name="图层 1"><path class="cls-1" d="M523.46,9.26V180.05H403.92a42.45,42.45,0,0,0-42.48,42.4v127c-2.7.12-5.41.18-8.11.18h8.11v174.1H182.8V179.47c0-94,76.36-170.21,170.53-170.21,2.7,0,5.41.06,8.11.18V9.26Zm.38,170.2V9.26M361.44,349.64v-.18M11.69,9.26V180.05L182.8,9.26Z"/><rect class="cls-2" x="514.36" y="9.26" width="18.52" height="170.93"/><polygon class="cls-3" points="351.26 351.11 351.26 350.93 369.78 350.93 351.26 351.11"/><path class="cls-4" d="M369.78,533H171.85V180.2c0-99.36,81-180.2,180.53-180.2,1.64,0,3.28,0,4.92.07L360.52,0h172V190.05H403.18a33.39,33.39,0,0,0-33.4,33.32V350.93H351.26V223.37a51.93,51.93,0,0,1,51.92-51.84H514v-153H369.78v.42l-9.68-.25c-2.57-.12-5.15-.17-7.72-.17-89.34,0-162,72.53-162,161.68V514.48H351.26V351.11h18.52ZM0,203.11V0H203.49ZM18.52,18.52v140L158.73,18.52Z"/></g></g></svg>